<?xml version="1.0" encoding="UTF-8" standalone="no"?>
<!-- Created with Inkscape (http://www.inkscape.org/) -->

<svg
   width="1023.9999"
   height="1023.9999"
   viewBox="0 0 270.93331 270.93331"
   version="1.1"
   id="svg1"
   xmlns="http://www.w3.org/2000/svg"
   xmlns:svg="http://www.w3.org/2000/svg">
  <defs
     id="defs1" />
  <g
     id="layer1">
    <g
       stroke-linecap="round"
       transform="matrix(1.6639375,0,0,1.728356,3.9971146,0.97966649)"
       id="g462">
      <path
         d="m 32,0 c 34.13,4.51 59.76,-0.19 94.99,0 17.54,1.56 36.52,12.99 32,32 -4.05,21.6 -3.87,32.64 0,90.81 -0.62,26.35 -10.62,33.35 -32,32 -23.26,-2.86 -45.75,-0.42 -94.99,0 C 7.57,157.65 -0.38,138.82 0,122.81 -4.29,87.6 -1.9,61.81 0,32 0.15,16.05 15.21,0.19 32,0"
         stroke="none"
         stroke-width="0"
         fill="#36f9c0"
         id="path461" />
      <path
         d="m 32,0 c 29.17,0.01 58.48,1.15 94.99,0 M 32,0 c 37.08,-0.16 70.69,-0.48 94.99,0 m 0,0 c 18.79,0.69 32.12,12.19 32,32 m -32,-32 c 22.22,-3.4 36.39,8.65 32,32 m 0,0 c -0.21,28.43 3.33,50.53 0,90.81 m 0,-90.81 c -1.66,30.74 -1.61,62.99 0,90.81 m 0,0 c 3.84,17.7 -12.31,28.77 -32,32 m 32,-32 c -3.51,25.42 -7.01,35.53 -32,32 m 0,0 c -31.21,-1.67 -61.17,-1.05 -94.99,0 m 94.99,0 c -29.03,2.12 -60.19,1.54 -94.99,0 m 0,0 c -19.04,-3.15 -31.77,-8.17 -32,-32 m 32,32 C 6.14,152.54 1.71,144.28 0,122.81 m 0,0 C -0.98,85.63 4.23,55.24 0,32 m 0,90.81 C -1.42,97.18 -0.57,70.07 0,32 m 0,0 C 1.63,14.4 9.14,-1.07 32,0 M 0,32 C 1.99,10.97 10.98,-2.56 32,0"
         stroke="transparent"
         stroke-width="2"
         fill="none"
         id="path462" />
    </g>
    <g
       stroke-linecap="round"
       transform="matrix(1.6639375,0,0,1.728356,36.021753,40.887438)"
       id="g464">
      <path
         d="M 21.06,11.98 C 27.29,6.27 36.83,2.37 45.84,1.01 c 9.01,-1.35 20.62,-0.05 29.28,2.83 8.65,2.88 16.56,7.54 22.64,14.45 6.09,6.92 12.04,17.64 13.85,27.06 1.82,9.43 0.42,21.09 -2.98,29.48 -3.4,8.38 -9.89,15.57 -17.4,20.84 -7.5,5.27 -18.08,9.14 -27.64,10.78 -9.56,1.63 -21.09,2.08 -29.7,-0.98 C 25.28,102.41 17.15,95.17 11.94,88.08 6.72,80.99 3.99,71.72 2.62,62.93 1.26,54.14 -4.36,46.11 3.73,35.33 11.83,24.54 38.18,2.7 51.17,-1.77 64.15,-6.23 81.44,7.22 81.64,8.52 M 27.6,6.31 c 7.35,-5.74 17.22,-8.88 26.58,-9.11 9.36,-0.24 21.88,2.54 29.59,7.67 7.72,5.13 11.93,14.87 16.71,23.12 4.78,8.24 11.03,17.76 11.96,26.37 0.93,8.6 -1.53,17.25 -6.37,25.24 -4.84,7.99 -14.38,18.1 -22.68,22.7 -8.3,4.6 -17.85,4.97 -27.13,4.9 -9.29,-0.08 -20.63,-0.89 -28.58,-5.36 C 19.74,97.38 13.44,88.64 8.58,80.41 3.72,72.18 -1.54,61.07 -1.47,52.47 -1.4,43.87 4.16,36.42 9.02,28.81 13.87,21.2 24.44,10.57 27.65,6.81 30.85,3.05 27.53,5.38 28.25,6.25"
         stroke="none"
         stroke-width="0"
         fill="#ffe9ed"
         id="path463" />
      <path
         d="M 20.65,12.3 C 27.03,5.77 38.03,0.94 46.79,-0.46 c 8.76,-1.4 18.26,0.95 26.41,4.36 8.14,3.41 16.03,9.33 22.48,16.12 6.45,6.79 14.41,16.25 16.2,24.61 1.8,8.37 -2.02,17.15 -5.41,25.57 -3.39,8.43 -8.18,18.93 -14.92,24.99 -6.74,6.05 -16.59,9.56 -25.53,11.33 -8.93,1.78 -19.44,1.94 -28.1,-0.71 C 29.26,103.16 20.13,97.78 14.05,90.63 7.97,83.49 3.6,71.98 1.44,62.97 -0.72,53.95 -5.3,46.94 1.09,36.52 7.48,26.1 29.46,6.24 39.78,0.45 c 10.31,-5.8 22.55,0.32 23.2,1.31 m 25.8,6.96 c 7.18,3.8 10.32,11.26 14.31,19.72 3.99,8.47 9.72,21.96 9.63,31.06 -0.09,9.1 -5.07,16.05 -10.2,23.54 -5.13,7.49 -11.67,17.49 -20.57,21.41 -8.9,3.92 -23.51,3.16 -32.84,2.11 C 39.79,105.51 33.66,102.97 26.02,98.14 18.37,93.31 7.78,85.7 3.24,77.59 -1.3,69.49 -2.25,58.71 -1.23,49.53 -0.21,40.36 4.34,29.72 9.35,22.56 14.36,15.39 20.13,10.63 28.84,6.53 c 8.71,-4.09 22.77,-8.79 32.79,-8.55 10.01,0.24 22.91,7.81 27.3,10 4.38,2.2 0.33,2.23 -1,3.16"
         stroke="#cc3366"
         stroke-width="4"
         fill="none"
         id="path464" />
    </g>
    <g
       stroke-linecap="round"
       transform="matrix(1.6475575,0.24191601,-0.23289942,1.7113418,160.8256,107.71603)"
       id="g466">
      <path
         d="m 38.75,5.25 c 6,3.72 7,5.87 13.75,10.5 3.12,10.78 6.75,7.91 0,10.5 -2.61,3.79 -15.43,5.44 -13.75,10.34 -6.39,6.97 -6.13,2.24 -15.5,0 -6.07,-3.55 -12.47,-3.13 -15.5,-10.34 -11.33,-10.75 -4.23,-3.1 0,-10.5 3.92,1.13 10.4,-7.24 15.5,-10.5 6.16,-2.41 9.08,-6.36 15.5,0"
         stroke="none"
         stroke-width="0"
         fill="#ffec99"
         id="path465" />
      <path
         d="m 38.75,5.25 c 3.19,6.76 11.86,6.96 13.75,10.5 M 38.75,5.25 c 5.33,4.82 8.51,8.6 13.75,10.5 m 0,0 c 4.89,4.02 9.68,1.26 0,10.5 m 0,-10.5 c 11.34,8.94 10.63,1.17 0,10.5 m 0,0 c -3.94,3.5 -6.41,8.31 -13.75,10.34 M 52.5,26.25 c -4.87,1.7 -8.26,6.24 -13.75,10.34 m 0,0 c -10.99,2.87 -7.67,8.89 -15.5,0 m 15.5,0 c -9.64,7.95 -5.99,5.47 -15.5,0 m 0,0 C 15.75,34.36 14.74,29.27 7.75,26.25 m 15.5,10.34 c -6.49,-3 -8.43,-5.75 -15.5,-10.34 m 0,0 c -11.12,-4.86 -9.54,-6.03 0,-10.5 m 0,10.5 c -7.73,-7.24 -11.02,-3.75 0,-10.5 m 0,0 C 12.54,14.06 21.27,4.41 23.25,5.25 m -15.5,10.5 c 3.3,-3.68 8.45,-6.17 15.5,-10.5 m 0,0 c 8.04,-7.8 8.51,-6.52 15.5,0 m -15.5,0 c 8.27,-8.1 3.87,-3 15.5,0"
         stroke="#cc3366"
         stroke-width="4"
         fill="none"
         id="path466" />
    </g>
    <g
       stroke-linecap="round"
       transform="matrix(1.6639375,0,0,1.728356,126.52617,77.044426)"
       id="g468">
      <path
         d="m 13.44,0.65 c 2.04,0.23 3.82,1.65 4.92,3.2 1.1,1.54 1.7,3.9 1.68,6.07 -0.02,2.16 -0.38,5.07 -1.79,6.92 -1.41,1.85 -4.48,3.92 -6.69,4.17 C 9.35,21.26 6.77,19.73 5,18.35 3.23,16.97 1.8,14.9 0.95,12.74 0.1,10.58 -0.92,7.28 -0.1,5.37 0.73,3.47 3.67,2.24 5.89,1.32 8.1,0.41 12.08,-0.11 13.21,-0.12 14.35,-0.13 12.77,1.08 12.7,1.26 M 7.99,-1.41 c 2.41,-0.34 6.49,2.08 8.58,3.68 2.08,1.59 3.47,3.97 3.91,5.88 0.44,1.9 -0.51,3.75 -1.27,5.54 -0.77,1.8 -1.43,4.31 -3.35,5.26 C 13.94,19.89 9.89,19.8 7.7,19.37 5.51,18.93 4.03,18.12 2.7,16.33 1.37,14.55 -0.13,10.69 -0.28,8.64 -0.42,6.6 0.2,5.47 1.85,4.08 3.5,2.69 8.5,0.91 9.62,0.32 10.75,-0.27 8.87,0.25 8.59,0.54"
         stroke="none"
         stroke-width="0"
         fill="#cc3366"
         id="path467" />
      <path
         d="m 11.33,-0.22 c 1.97,0.15 3.67,0.95 5.13,2.7 1.46,1.75 3.41,5.44 3.62,7.78 0.21,2.35 -1.13,4.69 -2.33,6.28 -1.21,1.6 -3.01,2.89 -4.91,3.3 C 10.95,20.24 8.52,20 6.39,18.97 4.26,17.94 0.97,15.47 0.05,13.66 -0.86,11.85 0.14,10.1 0.91,8.1 1.67,6.1 2.41,2.71 4.63,1.64 6.85,0.56 12.52,1.59 14.23,1.65 15.95,1.71 15,1.99 14.92,1.99 M 5.64,0.88 c 1.68,-1.01 4.3,-2.35 6.5,-1.56 2.2,0.78 5.57,4.13 6.7,6.29 1.14,2.16 0.51,4.56 0.12,6.67 -0.38,2.11 -1.17,4.9 -2.43,5.99 -1.26,1.09 -3.08,0.4 -5.13,0.55 C 9.34,18.96 6,20.37 4.21,19.14 2.42,17.92 1.25,13.83 0.66,11.48 0.07,9.12 -0.24,6.75 0.67,5 1.59,3.25 5.43,1.6 6.16,0.99 6.89,0.38 5.11,1.18 5.06,1.35"
         stroke="#cc3366"
         stroke-width="2"
         fill="none"
         id="path468" />
    </g>
  </g>
</svg>
