<svg xmlns="http://www.w3.org/2000/svg" viewBox="0 0 68 46.7">
  <path fill="none" stroke="#1e1e1e" stroke-linecap="round" stroke-width="2" d="M16.7 10c11.5 1.6 25 .4 34.6 0m-34.6 0c7.8-.7 15-.3 34.6 0m0 0c4.3.8 7.2 3.4 6.7 6.7M51.3 10c5.2 1.5 7.9 3.5 6.7 6.7m0 0c.7 3.9-.7 9.7 0 13.3m0-13.3c-.7 3.3-.5 5.4 0 13.3m0 0c.6 4.5-.5 6-6.7 6.7M58 30c.7 5.4-.4 7.2-6.7 6.7m0 0c-11.6 2-27-.3-34.6 0m34.6 0c-12.3.6-26.2-.6-34.6 0m0 0c-6.1-1-5.3-3.8-6.7-6.7m6.7 6.7c-2.5-.4-7.5-2.3-6.7-6.7m0 0c1.4-5 1.4-10.6 0-13.3M10 30c.5-4.2-.3-9.5 0-13.3m0 0c-1.1-4.1 3.2-6 6.7-6.7M10 16.7C7.9 10 13.2 11 16.7 10"/>
  <g stroke-linecap="round">
    <path fill="#1e1e1e" d="M21.4 19.7c1-.2 2 .3 2.7.8a4 4 0 0 1 1.7 2c.1.8-.3 1.7-.6 2.4-.4.7-1 1.4-1.7 1.8-.8.4-2.1.7-3 .5-.8-.1-1.6-.8-2-1.5a4 4 0 0 1-.7-2.6c0-.8.4-1.8 1-2.5.6-.6 2.2-1.2 2.7-1.3.5-.2.1.1.1.3m0 0c.8 0 2.2.1 3 .7.6.6 1.2 2.2 1.3 3 .1.9-.2 1.4-.8 2.1-.5.8-1.4 2-2.3 2.4a5 5 0 0 1-3.2-.8c-.7-.4-.9-1.2-1.2-1.8-.3-.7-1-1.5-.7-2.3.2-.7 1.2-1.7 2-2.2.8-.6 2.4-.8 2.8-1 .4-.3-.4-.5-.5-.4"/>
    <path fill="none" stroke="#1e1e1e" stroke-width="2" d="M21.6 19.3c.9 0 2 1 2.8 1.6.7.6 1.4 1.1 1.4 2 .1.7-.6 2.2-1 2.9-.5.7-.9 1-1.6 1.2-.8.3-2 .5-2.8.2a4 4 0 0 1-2.1-1.7c-.5-.8-.7-2-.5-3 .1-.9.6-2 1.3-2.4.6-.5 2.1-.3 2.6-.5.5 0 .1-.4.2-.3m.3-.2c.8 0 1.4 1 2 1.7.6.5 1.5.8 1.7 1.7 0 1-.5 2.9-1 3.6-.4.7-.9.6-1.7.7-.8.2-2.2.4-3 .2a3 3 0 0 1-2-1.6 3 3 0 0 1-.3-2.3c.3-.8 1.1-1.7 1.7-2.3.7-.6 1.9-1 2.2-1.2.4-.2 0-.3 0-.2"/>
  </g>
  <g stroke-linecap="round">
    <path fill="#1e1e1e" d="M33.4 19.3c.8 0 1.8.6 2.5 1 .6.6 1.4 1.3 1.6 2 .2.7 0 1.7-.5 2.5-.4.8-1 1.7-1.9 2.1-.8.4-2.2.5-3 .3-.9-.2-1.4-1-1.9-1.7-.4-.7-1-1.8-1-2.7.2-.9 1.2-2.1 1.8-2.7.7-.5 1.9-.4 2.3-.5.4-.2 0-.3 0-.2m.7-.3c.7.1 1.8 1.2 2.3 2a6 6 0 0 1 1 2.4c.2.7.2 1.2-.2 1.8-.5.6-1.5 1.6-2.5 1.9-1 .3-2.6.3-3.4 0-.7-.4-.7-1.5-1-2.3-.4-.8-1-1.6-.9-2.4.2-.9 1.1-1.9 2-2.5a6 6 0 0 1 2.8-1c.5-.2.3.3.3.4"/>
    <path fill="none" stroke="#1e1e1e" stroke-width="2" d="M32.8 19a7 7 0 0 1 3 1.2c.8.5 1.3 1.1 1.6 2 .3.8.4 2.1 0 2.9-.5.7-1.7 1.2-2.5 1.6-.8.3-1.4.7-2.3.5-.8-.1-2.2-1-2.7-1.6-.5-.7-.2-1.5-.1-2.3 0-.8 0-2 .4-2.7.6-.6 2.3-1 2.8-1.2.5-.2.2 0 .2.2m.8-.5c.8.1 2 1 2.7 1.6.6.7 1 1.7 1 2.5 0 .7-1 1.4-1.4 2.1-.5.7-1 1.8-1.7 2-.8.4-2.2.1-3-.3a3.4 3.4 0 0 1-1.5-2c-.3-.9-.5-2.4-.3-3.3.2-.8.7-1.3 1.3-1.7.6-.4 2-.8 2.5-.9.5 0 .3.3.4.4"/>
  </g>
  <g stroke-linecap="round">
    <path fill="#1e1e1e" d="M46.5 19.6a6 6 0 0 1 2.6 1c.7.4 1.5 1 1.6 1.8.2.8 0 2.2-.6 3a6 6 0 0 1-2.6 1.9c-.8.2-1.4 0-2.2-.3-.8-.3-2.1-.8-2.6-1.6-.5-.7-.5-2-.3-2.9.3-.9.9-2 1.6-2.6.8-.5 2.5-.5 3-.6h-.1m0 .1c.7-.1 1 0 1.6.5.6.4 1.8 1.5 2 2.3.1.8-.3 2-.8 2.7-.5.7-1.4 1.5-2.3 1.8-.8.4-2 .6-2.7.4-.8-.3-1.4-1.2-1.8-2-.3-.7-.6-1.7-.5-2.6 0-.8.4-1.7 1.1-2.3.8-.6 2.9-1 3.4-1.2.6 0 0 .6 0 .7"/>
    <path fill="none" stroke="#1e1e1e" stroke-width="2" d="M46.7 19.4c.9 0 2 .4 2.6 1 .5.4.8 1.2 1 2 0 .9.2 2.3-.2 3.1-.4.8-1.5 1.4-2.3 1.7-.8.3-1.8.3-2.6 0A6.5 6.5 0 0 1 43 25c-.4-.8-.8-1.6-.7-2.4.1-.9.7-2 1.4-2.6.7-.5 2.4-.5 2.9-.6.5 0 0 .1 0 .2m-.1-.3c.7 0 1.7.7 2.4 1.2.6.5 1.5 1 1.7 1.7.2.7-.1 1.7-.6 2.5-.4.8-1 1.8-1.8 2.2-.9.5-2.5.6-3.3.4-.8-.3-1.1-1-1.6-1.7-.4-.8-1.2-1.8-1-2.8 0-.9 1.2-2.3 1.9-2.8.7-.6 1.7-.2 2-.3.3-.1 0-.4 0-.4"/>
  </g>
</svg>
