<?xml version="1.0" encoding="UTF-8"?>
<!-- Generated by Pixelmator Pro 3.6.14 -->
<svg width="1451" height="1451" viewBox="0 0 1451 1451" xmlns="http://www.w3.org/2000/svg">
    <path id="Rectangle" fill="#000000" fill-rule="evenodd" stroke="none" d="M 0 1451 L 1451 1451 L 1451 0 L 0 0 Z"/>
    <g id="Group">
        <path id="Circle" fill="#00d8ff" fill-rule="evenodd" stroke="none" d="M 1221.271606 823.362183 C 1221.271606 580.556885 1024.439087 383.724365 781.633789 383.724365 C 538.828552 383.724365 341.995972 580.556885 341.995972 823.362183 C 341.995972 1066.16748 538.828552 1263 781.633789 1263 C 1024.439087 1263 1221.271606 1066.16748 1221.271606 823.362183 Z"/>
        <path id="path1" fill="#00d8ff" fill-rule="evenodd" stroke="none" d="M 978.515137 561.893372 C 978.515137 355.397705 811.117371 188 604.621765 188 C 398.126129 188 230.728363 355.397705 230.728363 561.893372 C 230.728363 768.388977 398.126129 935.786743 604.621765 935.786743 C 811.117371 935.786743 978.515137 768.388977 978.515137 561.893372 Z"/>
    </g>
</svg>
