<?xml version="1.0" encoding="UTF-8"?>
<!-- Generated by Pixelmator Pro 3.6.18 -->
<svg width="512" height="512" viewBox="0 0 512 512" xmlns="http://www.w3.org/2000/svg">
    <g id="pre-iconified">
        <linearGradient id="linearGradient1" x1="319.104652" y1="485.942243" x2="172.673075" y2="28.203621" gradientUnits="userSpaceOnUse">
            <stop offset="0" stop-color="#defff6" stop-opacity="1"/>
            <stop offset="1" stop-color="#fffcf3" stop-opacity="1"/>
        </linearGradient>
        <filter id="filter1" x="0" y="0" width="512" height="512" filterUnits="userSpaceOnUse" primitiveUnits="userSpaceOnUse" color-interpolation-filters="sRGB">
            <feGaussianBlur stdDeviation="5.793921"/>
            <feOffset dx="-0" dy="6.621623" result="offsetblur"/>
            <feFlood flood-color="#000000" flood-opacity="0.201199"/>
            <feComposite in2="offsetblur" operator="in"/>
            <feMerge>
                <feMergeNode/>
                <feMergeNode in="SourceGraphic"/>
            </feMerge>
        </filter>
        <path id="full-copy" fill="url(#linearGradient1)" fill-opacity="0.978652" fill-rule="evenodd" stroke="#000000" stroke-width="0.827703" stroke-opacity="0.296802" stroke-linecap="round" stroke-linejoin="round" filter="url(#filter1)" d="M 11.564836 380.940979 C 11.564836 422.159271 11.564836 442.768402 20.21874 458.221069 C 26.334835 469.142151 35.351875 478.15918 46.272949 484.275269 C 61.725609 492.929199 82.334755 492.929199 123.55304 492.929199 L 387.01181 492.929199 C 428.230103 492.929199 448.839233 492.929199 464.291901 484.275269 C 475.212982 478.15918 484.230011 469.142151 490.3461 458.221069 C 499 442.768402 499 422.159271 499 380.940979 L 499 128.98822 C 499 87.769928 499 67.160797 490.3461 51.70813 C 484.230011 40.787048 475.212952 31.77002 464.291901 25.653931 C 448.839233 17.000031 428.230103 17.000031 387.01181 17.000031 L 123.55304 17 C 82.334755 17 61.725609 17 46.272949 25.6539 C 35.351875 31.769989 26.334835 40.787048 20.21874 51.708099 C 11.564835 67.160767 11.564835 87.769897 11.564835 128.98819 Z"/>
    </g>
    <g id="maskable">
        <linearGradient id="linearGradient2" x1="347.373592" y1="535.558637" x2="170.460388" y2="-17.4642" gradientUnits="userSpaceOnUse">
            <stop offset="0" stop-color="#defff6" stop-opacity="1"/>
            <stop offset="1" stop-color="#fffcf3" stop-opacity="1"/>
        </linearGradient>
        <filter id="filter2" x="0" y="0" width="512" height="512" filterUnits="userSpaceOnUse" primitiveUnits="userSpaceOnUse" color-interpolation-filters="sRGB">
            <feGaussianBlur stdDeviation="7"/>
            <feOffset dx="-0" dy="8" result="offsetblur"/>
            <feFlood flood-color="#000000" flood-opacity="0.201199"/>
            <feComposite in2="offsetblur" operator="in"/>
            <feMerge>
                <feMergeNode/>
                <feMergeNode in="SourceGraphic"/>
            </feMerge>
        </filter>
        <path id="full" fill="url(#linearGradient2)" fill-opacity="0.978652" fill-rule="evenodd" stroke="#000000" stroke-opacity="0.296802" stroke-linecap="round" stroke-linejoin="round" visibility="hidden" filter="url(#filter2)" d="M -24.184616 408.700012 C -24.184616 458.498413 -24.184616 483.397614 -13.729288 502.066956 C -6.340049 515.261353 4.554005 526.155457 17.748444 533.544678 C 36.417774 544 61.316978 544 111.115387 544 L 429.416504 544 C 479.214905 544 504.114105 544 522.783386 533.544678 C 535.977844 526.155457 546.871887 515.261353 554.261108 502.066956 C 564.716431 483.397614 564.716431 458.498413 564.716431 408.700012 L 564.716492 104.299988 C 564.716492 54.501587 564.716492 29.602356 554.261169 10.933044 C 546.871948 -2.261414 535.977905 -13.155457 522.783447 -20.544678 C 504.114166 -31 479.214935 -31 429.416534 -31 L 111.115387 -31 C 61.316978 -31 36.417774 -31 17.748444 -20.544678 C 4.554007 -13.155457 -6.340047 -2.261414 -13.729286 10.933044 C -24.184614 29.602356 -24.184614 54.501587 -24.184614 104.299988 Z"/>
    </g>
    <text id="lb" xml:space="preserve" x="79.809801" y="383" font-family="Jost*" font-size="386" font-weight="700" fill="#000000">lb</text>
</svg>
